<?xml version="1.0" encoding="UTF-8"?>
<svg width="401px" height="412px" viewBox="0 0 401 412" version="1.1" xmlns="http://www.w3.org/2000/svg" xmlns:xlink="http://www.w3.org/1999/xlink">
    <title>cube</title>
    <defs>
        <linearGradient x1="60.8292327%" y1="0%" x2="60.8292327%" y2="100%" id="linearGradient-1">
            <stop stop-color="#A86000" stop-opacity="0" offset="0%"></stop>
            <stop stop-color="#BF8700" offset="100%"></stop>
        </linearGradient>
        <linearGradient x1="50%" y1="0%" x2="50%" y2="100%" id="linearGradient-2">
            <stop stop-color="#005977" offset="0%"></stop>
            <stop stop-color="#005977" stop-opacity="0" offset="100%"></stop>
        </linearGradient>
        <linearGradient x1="50%" y1="0%" x2="50%" y2="100%" id="linearGradient-3">
            <stop stop-color="#005977" offset="0%"></stop>
            <stop stop-color="#005977" stop-opacity="0" offset="100%"></stop>
        </linearGradient>
    </defs>
    <g id="Sign-Up-Flow-(Sandbox-v2)" stroke="none" stroke-width="1" fill="none" fill-rule="evenodd">
        <g id="cube" transform="translate(0.775281, 1.000000)">
            <g id="Cubes-Pink" transform="translate(0.224719, 253.000000)">
                <polygon id="Path" fill="#02022B" points="0 81.9662921 126.666667 130 180 109.775281 180 103.033708 53.3333333 55 0 75.2247191"></polygon>
                <g id="cube-long-orange" transform="translate(0.000000, 55.000000)">
                    <polygon id="Path-9" fill-opacity="0.86" fill="#0D0D28" points="0 26.9662921 125.962963 75 179 54.7752809 179 48.0337079 53.037037 0 0 20.2247191"></polygon>
                    <line x1="53.037037" y1="6.74157303" x2="53.037037" y2="0" id="Path-116" stroke="#6D0030" stroke-width="0.4"></line>
                    <polyline id="Path-9" stroke="#6D0030" stroke-width="0.4" points="178.171296 54.7752809 53.037037 6.74157303 0.828703704 26.9662921"></polyline>
                    <path d="M0,20.2247191 C1.10493827,21.3483146 43.0925926,37.3595506 125.962963,68.258427 L179,48.0337079" id="Path-59" stroke="#D82071"></path>
                    <line x1="125.962963" y1="68.258427" x2="125.962963" y2="75" id="Path-60" stroke="#D82071"></line>
                    <polygon id="Path-9" stroke="#D82071" points="0 26.9662921 125.962963 75 179 54.7752809 179 48.0337079 53.037037 0 0 20.2247191"></polygon>
                </g>
                <g id="cube-long-orange" transform="translate(73.000000, 27.000000)">
                    <polygon id="Path-9" fill-opacity="0.86" fill="#0D0D28" points="0 26.9662921 125.962963 75 179 54.7752809 179 48.0337079 53.037037 0 0 20.2247191"></polygon>
                    <line x1="53.037037" y1="6.74157303" x2="53.037037" y2="0" id="Path-116" stroke="#6D0030" stroke-width="0.4"></line>
                    <polyline id="Path-9" stroke="#6D0030" stroke-width="0.4" points="178.171296 54.7752809 53.037037 6.74157303 0.828703704 26.9662921"></polyline>
                    <path d="M0,20.2247191 C1.10493827,21.3483146 43.0925926,37.3595506 125.962963,68.258427 L179,48.0337079" id="Path-59" stroke="#D82071"></path>
                    <line x1="125.962963" y1="68.258427" x2="125.962963" y2="75" id="Path-60" stroke="#D82071"></line>
                    <polygon id="Path-9" stroke="#D82071" points="0 26.9662921 125.962963 75 179 54.7752809 179 48.0337079 53.037037 0 0 20.2247191"></polygon>
                </g>
                <g id="cube-long-orange" transform="translate(147.000000, 0.000000)">
                    <polygon id="Path-9" fill-opacity="0.86" fill="#0D0D28" points="0 26.9662921 125.962963 75 179 54.7752809 179 48.0337079 53.037037 0 0 20.2247191"></polygon>
                    <line x1="53.037037" y1="6.74157303" x2="53.037037" y2="0" id="Path-116" stroke="#6D0030" stroke-width="0.4"></line>
                    <polyline id="Path-9" stroke="#6D0030" stroke-width="0.4" points="178.171296 54.7752809 53.037037 6.74157303 0.828703704 26.9662921"></polyline>
                    <path d="M0,20.2247191 C1.10493827,21.3483146 43.0925926,37.3595506 125.962963,68.258427 L179,48.0337079" id="Path-59" stroke="#D82071"></path>
                    <line x1="125.962963" y1="68.258427" x2="125.962963" y2="75" id="Path-60" stroke="#D82071"></line>
                    <polygon id="Path-9" stroke="#D82071" points="0 26.9662921 125.962963 75 179 54.7752809 179 48.0337079 53.037037 0 0 20.2247191"></polygon>
                </g>
                <g id="cube-orange" transform="translate(293.000000, 55.000000)">
                    <polygon id="fill" fill="#0D0D28" points="0 26.8571429 53 47 106 26.8571429 106 20.1428571 53 0 -1.25153794e-14 20.1428571"></polygon>
                    <polygon id="Path-9" stroke="#E45480" points="0 26.8571429 53 47 106 26.8571429 106 20.1428571 53 0 -1.25153794e-14 20.1428571"></polygon>
                    <path d="M53.0859375,40.2857143 L53.0859375,47" id="Path-9" stroke="#D82071"></path>
                    <line x1="53" y1="6.71428571" x2="53" y2="0.419642857" id="Path-116" stroke="#6D0030" stroke-width="0.4"></line>
                    <polyline id="Path-9" stroke="#6D0030" stroke-width="0.4" points="106 26.8571429 53 6.71428571 0 26.8571429"></polyline>
                    <polyline id="Path-58" stroke="#D82071" points="5.88418203e-15 20.1428571 53 40.2857143 106 20.1428571"></polyline>
                    <polygon id="Path-9" stroke="#D82071" points="0 26.8571429 53 47 106 26.8571429 106 20.1428571 53 0 -1.25153794e-14 20.1428571"></polygon>
                </g>
                <g id="cube-orange" transform="translate(220.000000, 82.000000)">
                    <polygon id="fill" fill="#0D0D28" points="0 26.8571429 53 47 106 26.8571429 106 20.1428571 53 0 -1.25153794e-14 20.1428571"></polygon>
                    <polygon id="Path-9" stroke="#E45480" points="0 26.8571429 53 47 106 26.8571429 106 20.1428571 53 0 -1.25153794e-14 20.1428571"></polygon>
                    <path d="M53.0859375,40.2857143 L53.0859375,47" id="Path-9" stroke="#D82071"></path>
                    <line x1="53" y1="6.71428571" x2="53" y2="0.419642857" id="Path-116" stroke="#6D0030" stroke-width="0.4"></line>
                    <polyline id="Path-9" stroke="#6D0030" stroke-width="0.4" points="106 26.8571429 53 6.71428571 0 26.8571429"></polyline>
                    <polyline id="Path-58" stroke="#D82071" points="5.88418203e-15 20.1428571 53 40.2857143 106 20.1428571"></polyline>
                    <polygon id="Path-9" stroke="#D82071" points="0 26.8571429 53 47 106 26.8571429 106 20.1428571 53 0 -1.25153794e-14 20.1428571"></polygon>
                </g>
                <g id="cube-orange" transform="translate(146.000000, 110.000000)">
                    <polygon id="fill" fill="#0D0D28" points="0 26.8571429 53 47 106 26.8571429 106 20.1428571 53 0 -1.25153794e-14 20.1428571"></polygon>
                    <polygon id="Path-9" stroke="#E45480" points="0 26.8571429 53 47 106 26.8571429 106 20.1428571 53 0 -1.25153794e-14 20.1428571"></polygon>
                    <path d="M53.0859375,40.2857143 L53.0859375,47" id="Path-9" stroke="#D82071"></path>
                    <line x1="53" y1="6.71428571" x2="53" y2="0.419642857" id="Path-116" stroke="#6D0030" stroke-width="0.4"></line>
                    <polyline id="Path-9" stroke="#6D0030" stroke-width="0.4" points="106 26.8571429 53 6.71428571 0 26.8571429"></polyline>
                    <polyline id="Path-58" stroke="#D82071" points="5.88418203e-15 20.1428571 53 40.2857143 106 20.1428571"></polyline>
                    <polygon id="Path-9" stroke="#D82071" points="0 26.8571429 53 47 106 26.8571429 106 20.1428571 53 0 -1.25153794e-14 20.1428571"></polygon>
                </g>
                <path d="M339.6661,68 L326,72.9997873 L327.875388,73.6858997 L331.882613,72.2197607 L335.929485,71.8293486 L331.921631,75.166395 L334.174928,75.990687 L339.669876,71.4570813 L347.138072,70.7336823 L344.852994,69.9040067 L335.57486,70.8634874 L341.54904,68.6889039 L339.6661,68 Z M354.434652,73.409401 L342.331479,76.2639157 L350.109932,71.8210339 L348.019945,71.0563605 L337.701537,77.2810209 L339.542312,77.9300462 C339.542312,77.9300462 356.530303,74.1698871 356.499822,74.1589205 C356.469888,74.1477544 354.434652,73.409401 354.434652,73.409401 M365.149156,77.323073 L354.308094,79.4677475 L360.06201,75.4621352 L358.234136,74.79337 L344.568351,79.7931574 L346.423915,80.4718922 L354.31187,77.5631425 L348.779792,81.4467261 L359.446845,79.4057361 L351.452848,82.3116943 L353.3339,83 L367,78.0002127 L365.149156,77.323073 Z" id="Fill-18" fill="#D82071"></path>
                <path d="M133.266595,50.7752437 L143.520939,49.2682093 L151.194604,49.1327968 C155.415004,49.0586242 158.876381,48.9989058 158.886811,49.0000152 C158.896081,49.0011881 158.783097,49.0243908 158.634189,49.0510168 C158.485282,49.0780232 151.683044,50.3013 143.517463,51.7695364 L128.671899,54.4382272 L125.829908,53.3648171 C124.267247,52.7744796 122.993131,52.2895051 123.000028,52.2868425 C123.007037,52.2841799 127.626069,51.6040745 133.266595,50.7752437 Z M182.728826,71.0110408 L187.916835,69.0448973 L188.557659,69.2875747 L189.199642,69.5310129 L188.130057,69.9361092 C187.541959,70.1593877 187.066266,70.3438681 187.07264,70.3465307 C187.079592,70.348813 187.206483,70.3244692 187.35597,70.2917572 C188.03967,70.1415102 188.794057,70.0456564 189.516578,70.0159874 C190.167831,69.9893613 190.714791,70.0331041 191.189326,70.1502587 C191.322589,70.1833511 191.41993,70.2168238 191.631993,70.3031683 C191.899099,70.411194 192.017298,70.4758573 192.11348,70.5671466 L192.143609,70.5956745 L191.27276,70.9258375 L190.401912,71.2556201 L190.349186,71.1605271 C190.25706,70.992783 190.0618,70.8664994 189.722847,70.7542897 C189.502093,70.6808778 189.331747,70.6428406 189.085499,70.6112697 C188.579098,70.5454654 188.008382,70.5526924 187.41391,70.6318098 C186.552912,70.7466822 185.605581,70.9547458 184.859305,71.1932391 C184.724883,71.2358408 183.713818,71.6146914 181.729928,72.3647853 L178.799288,73.4728093 L178.167155,73.2331748 C177.819511,73.1015661 177.53676,72.990117 177.537912,72.9855526 C177.539657,72.9809881 179.875247,72.0924388 182.728826,71.0110408 Z M160.566511,66.3609916 L160.83188,66.260193 L167.399457,65.5504186 L173.966455,64.8406442 L171.85104,64.0315927 L169.734467,63.2225412 L170.436129,62.9539984 L171.13779,62.6850753 L174.212124,63.8501552 L177.285298,65.015235 L177.047162,65.1053832 L176.809025,65.1959118 L170.218272,65.9144347 C166.593502,66.3096414 163.623462,66.6344791 163.618827,66.636381 C163.614192,66.6379025 164.654227,67.035011 165.929502,67.518464 L168.248868,68.397504 L167.539094,68.6668074 L166.829321,68.9361109 L163.564942,67.6987604 L160.301143,66.4617902 L160.566511,66.3609916 Z M164.676245,61.5002162 C166.962005,59.9509605 167.10338,59.8592908 167.543729,59.6382946 C167.749998,59.5352138 167.740148,59.5260848 167.501433,59.6013985 C167.331087,59.6554113 166.919129,59.7649585 166.678095,59.8204929 C166.558158,59.84826 164.697103,60.2461293 162.542289,60.704858 C160.387474,61.1635868 158.617966,61.5416767 158.609275,61.5451001 C158.600584,61.5485234 159.459844,61.8794472 160.517841,62.2803594 C161.576417,62.681652 162.444948,63.008772 162.448425,63.0080139 C162.451901,63.0064898 163.453696,62.3279059 164.676245,61.5002162 Z M159.410015,60.5846605 L168.784819,58.6341122 L169.463884,58.8916241 L170.142949,59.149136 L170.010844,59.2419468 C169.605259,59.5260848 159.879335,66.289862 159.872382,66.2925681 C159.867746,66.2944265 159.539223,66.1727074 159.14117,66.0216996 L158.419229,65.7482121 L159.871223,64.7539193 L161.323796,63.760007 L158.967348,62.8668932 L156.612059,61.9741598 L156.521672,61.9924177 C156.473001,62.0026877 155.306076,62.2552548 153.929405,62.553847 L151.426367,63.0973987 L150.702108,62.8227701 C150.127916,62.6059579 149.983064,62.5473806 150.006241,62.5420554 C150.022464,62.5386321 154.253293,61.6580706 159.410015,60.5846605 Z M194.432266,74.5911033 C195.26893,74.2742533 195.927715,73.820089 196.025056,73.4944905 C196.094005,73.2620831 195.973489,73.0578233 195.661768,72.8801895 C195.514598,72.7957469 195.110172,72.6531073 194.863345,72.5987141 C194.342458,72.4842221 193.764789,72.444283 193.082827,72.4773754 C192.365522,72.5123696 191.638945,72.6093645 190.93149,72.7656975 C190.677709,72.8216122 190.284871,72.9235519 190.0815,72.9859329 L189.984739,73.015602 L192.135497,73.8311198 L194.286835,74.6462573 L194.432266,74.5911033 Z M184.553958,75.3510868 C184.377239,74.7143439 185.065574,74.0369011 186.609114,73.3297893 C187.143327,73.0852101 187.929003,72.7824338 188.476542,72.6101253 C189.69967,72.2248083 191.135441,71.9357255 192.399127,71.8200924 C192.723016,71.790043 193.366157,71.7577113 193.680196,71.7554291 C194.529607,71.748202 195.318179,71.8174298 195.98218,71.9570263 C196.368644,72.038426 196.938201,72.2236672 197.219213,72.35946 C197.923772,72.7002735 198.165385,73.1662293 197.88727,73.6500627 C197.605098,74.1418838 196.780602,74.6660366 195.457237,75.1947539 C195.24923,75.2772946 194.87783,75.4191734 194.630423,75.5104627 L194.180804,75.6751639 L191.366624,74.6120238 L188.552445,73.5488837 L188.388473,73.6116451 C187.889603,73.80069 187.41391,74.0513553 187.090022,74.2951738 C186.811906,74.5059 186.594629,74.7683567 186.569135,74.9262112 C186.516409,75.2487667 186.735425,75.5367084 187.205903,75.7645513 C187.379725,75.8486136 187.911041,76.0311922 188.182783,76.0996592 C188.95803,76.2947901 189.902463,76.4016746 190.883978,76.4054784 C190.99928,76.4058587 191.108788,76.4069999 191.12675,76.4077606 C191.152823,76.4085213 191.006812,76.4663379 190.378735,76.7040705 L189.598274,77 L189.35782,76.9901103 C188.343858,76.9497909 187.411013,76.8162803 186.62244,76.6002289 C186.386622,76.5355656 185.627599,76.2586547 185.409162,76.1578561 C184.947375,75.9444673 184.638551,75.6531023 184.553958,75.3510868 Z M171.385777,68.4054918 C171.863787,68.1791704 171.877114,68.1738451 175.362826,66.8478679 L178.736133,65.5648727 L179.378116,65.8083109 L180.019519,66.051749 L176.756299,67.2921426 C173.81523,68.410817 173.472221,68.5424257 173.286811,68.629531 C172.533002,68.9813752 172.141323,69.2617094 172.031815,69.5275896 C171.944325,69.7405979 172.031236,69.9182317 172.314566,70.1019515 C172.448409,70.1882959 172.963502,70.3838072 173.176723,70.4286911 C173.67849,70.5340542 174.212124,70.5682877 174.847154,70.5363364 C175.571412,70.4994403 176.386058,70.3666905 177.15667,70.159768 L177.416244,70.0901599 L180.716546,68.842159 L184.017427,67.5945384 L184.672157,67.8429214 L185.327466,68.0916848 L180.146409,70.0555461 L174.964773,72.0194074 L174.315837,71.7733066 L173.666902,71.5275862 L174.48908,71.2160614 C175.048208,71.0045745 175.304306,70.9033955 175.2904,70.9014937 C175.279391,70.8999722 175.179154,70.9125245 175.068487,70.9296412 C174.311782,71.0467958 173.451942,71.0905386 172.75028,71.0471762 C171.908981,70.9954456 171.293651,70.8566098 170.67948,70.5816007 C169.35032,69.9855576 169.587298,69.2563842 171.385777,68.4054918 Z M133.012236,57.1601702 C136.921494,58.0852352 140.151688,58.8494028 140.190508,58.8573906 L140.260037,58.8726055 L141.925832,55.9688447 C142.842454,54.3712817 143.602056,53.0608998 143.613644,53.0559549 C143.63682,53.0475867 157.882119,49.9951004 157.939577,49.9863498 C157.958021,49.9836893 155.308393,52.5850542 151.515016,56.2925414 C147.963831,59.7638174 145.035509,62.6257373 145.007697,62.6523633 L144.957289,62.701051 L135.43126,59.0890372 L125.905231,55.4770235 L133.012236,57.1601702 Z" id="Fill-1" fill="#D82071"></path>
                <path d="M44.5013907,79.7854193 L47.9182413,81.0695553 L51.539316,79.7085664 L48.1224654,78.4240238 C47.8813935,78.333752 47.7090209,78.2170494 47.6240837,78.0836749 L43.032476,78.3243996 L43,78.3329388 C43.0018736,78.9127924 43.5271106,79.4239257 44.5013907,79.7854193 M62.1933821,77.320228 L62.2433452,77.338933 L62.2458434,77.3149418 L66.6407214,77.0847895 L66.6894354,77.0693376 C66.959236,75.7709696 65.3928933,74.7003142 62.5506182,74.2391963 C59.7045959,73.7788917 55.9879668,73.991559 52.7166337,74.8027848 C52.7672213,74.808071 52.8159353,74.8153903 52.8615266,74.8239295 C54.1768049,74.8576798 55.3628037,75.0398498 56.2527711,75.3679998 C56.5475534,75.4777898 56.8004915,75.6009985 57.0103364,75.7351862 C57.0365671,75.7359995 57.0553032,75.7392525 57.0640468,75.7449454 C60.0524639,75.5367511 62.3051745,76.2292411 62.2027502,77.3238877 L62.1933821,77.320228 Z M64.6006661,79.2695691 C65.8178918,78.5754526 66.549851,77.8154621 66.7084838,77.0810892 L62.2461556,77.3149012 C62.17933,77.9496498 61.321214,78.6193686 59.9141286,79.1333483 L59.4638363,79.3025061 C61.7415285,80.1588679 57.2167464,81.859799 54.9390542,81.0038439 L51.5215791,79.7188947 L51.5090884,79.719708 L47.9179915,81.0697179 L47.9036271,81.0640251 L47.8967572,81.0815102 L51.3148569,82.3660528 C53.2546737,83.1101847 56.6733979,83.1309228 59.734886,82.418508 C62.7913778,81.7052798 64.7692915,80.4260234 64.6006661,79.2695691 M56.2526462,75.3680811 C54.3384355,74.6613591 51.0477417,74.6333016 48.0618227,75.3005806 C45.0709075,75.9678596 43.048027,77.1836818 43.0205473,78.3250908 L47.6277684,78.0839595 C47.1905914,77.4288794 48.8200126,76.6205 50.784811,76.5176227 C52.7477357,76.4147455 53.8306856,77.0808046 52.8807624,77.8082647 L57.487359,77.5667268 C58.1044031,76.7010126 57.6459918,75.8865337 56.2526462,75.3680811 M97.8427313,95.0062119 L101.798559,95.4380524 C101.969058,95.315657 102.03401,95.1855355 101.980299,95.0704594 C101.929087,94.9399313 101.780447,94.8244485 101.544371,94.7406829 C101.141544,94.5983625 100.553853,94.5394013 99.909954,94.5788443 C99.1648795,94.6121879 98.4091878,94.7683337 97.8427313,95.0062119 L97.8427313,95.0062119 Z M95.5488011,97.0731096 C94.7643807,96.7982281 94.4271298,96.3749268 94.6144914,95.9056764 C94.7924849,95.4347994 95.4738565,94.9590429 96.4968507,94.5873835 C97.4823726,94.196206 98.744565,93.9339299 100.000512,93.8587035 C101.19463,93.7855102 102.279453,93.9018062 102.982684,94.1811607 C103.316187,94.3035561 103.560382,94.4580754 103.694658,94.6353658 C103.823313,94.7931381 103.858287,94.9679887 103.793335,95.1501588 C103.744621,95.3054912 103.645944,95.4628568 103.505423,95.6194092 C103.37989,95.7511571 103.226254,95.8800587 103.043889,96.0057072 L102.740363,96.2175612 L96.8116181,95.559228 C96.3238535,95.9207216 96.420657,96.2980738 97.0489428,96.5091145 C97.6235183,96.7254414 98.5553298,96.7770834 99.505253,96.6437089 L99.6070528,97.3272531 C98.8982015,97.4089856 98.1912239,97.4386695 97.5273393,97.4158983 C96.7335508,97.3886541 96.0490565,97.2703249 95.5488011,97.0731096 L95.5488011,97.0731096 Z M92.3430446,95.6958555 L91.0883466,95.2241653 L102.197639,91.048487 L103.451712,91.5201773 L92.3430446,95.6958555 Z M88.853123,93.4390618 C89.2584485,93.5984606 89.8879834,93.6606749 90.5737268,93.6078131 C91.3188013,93.5496651 92.0588795,93.389453 92.6378268,93.1588941 C93.2611163,92.9376877 93.6982933,92.6571133 93.8612979,92.3716594 C94.0049417,92.1126364 93.8400636,91.8763847 93.4116301,91.7255252 C92.9944383,91.5608402 92.358658,91.4933397 91.6516804,91.541322 C90.8903678,91.5888976 90.1246835,91.7462633 89.5270001,91.979262 C88.909956,92.2029082 88.4990096,92.489582 88.3778491,92.7717828 C88.2448224,93.0377185 88.4190687,93.280883 88.853123,93.4390618 L88.853123,93.4390618 Z M83.8861677,95.2400239 C83.2853615,95.0338627 82.9587279,94.731737 82.9605935,94.3873218 C82.961226,94.0807232 83.1779409,93.7566395 83.5945081,93.4480077 L85.292004,93.6330241 C85.0409395,93.8172273 84.9016674,94.0087498 84.8885521,94.1929529 C84.8685668,94.3897616 85.0459358,94.5633924 85.3844357,94.6805017 C85.7691515,94.8500662 86.3849465,94.924886 87.0750616,94.885443 C87.8251325,94.8216021 88.5602144,94.6524443 89.1266709,94.4149726 L89.6731421,94.2096247 L89.6281754,94.1925463 C88.6751295,94.2726523 87.7995264,94.1823806 87.2699177,93.9510084 C86.5367094,93.6777534 86.2425517,93.2658377 86.4567685,92.8136657 C86.6203976,92.3476683 87.2861557,91.8743515 88.29541,91.5043187 C89.2896755,91.1208671 90.5537415,90.8675369 91.8015696,90.8041027 C93.0025573,90.7231834 94.1048679,90.8329734 94.8349535,91.1078549 C95.1391038,91.2221178 95.3501978,91.3689111 95.4557449,91.538069 C95.5537974,91.6791694 95.56379,91.8373483 95.4751056,91.9983735 L95.5200723,92.015452 L96.1227521,91.7889594 L97.3118735,92.2362518 L90.5431244,94.7805325 C89.5232529,95.2111532 88.1792459,95.5092126 86.8239971,95.6055838 C85.6373738,95.6568191 84.5750337,95.526291 83.8861677,95.2400239 L83.8861677,95.2400239 Z M82.1443296,90.4234975 C81.892016,90.9813932 82.9349954,91.3729774 84.4170254,91.2782327 C85.1777134,91.2330968 85.9377769,91.0765445 86.5360849,90.8427325 C87.1606234,90.6170531 87.5834361,90.3283462 87.7033475,90.0428923 C87.9387985,89.4862165 86.9008154,89.0962588 85.4225326,89.1857173 C84.66122,89.2296333 83.8936621,89.3890321 83.2953542,89.6248772 C82.6739383,89.8493367 82.256122,90.1372303 82.1393332,90.4222776 L82.1443296,90.4234975 Z M84.2515227,92.0150454 C81.674052,92.1289016 79.8816263,91.4551165 80.185152,90.4861185 C80.3425357,90.0128017 81.0220337,89.531759 82.0562696,89.1588798 C83.0511596,88.7693287 84.3314637,88.5135588 85.5867862,88.4554108 C88.1673796,88.3403346 89.9598054,89.0145263 89.654406,89.983931 C89.4988959,90.4560279 88.8187734,90.9370706 87.7832884,91.3115763 C86.7896475,91.6999075 85.509968,91.9552708 84.2515227,92.0150454 L84.2515227,92.0150454 Z M75.8970701,88.0756188 C75.6422584,88.631888 76.6852378,89.0238788 78.1672679,88.9287275 C78.9273313,88.8835916 79.6892684,88.7274459 80.2857027,88.4932273 C80.9114904,88.2679546 81.3336785,87.9792476 81.4535899,87.6937937 C81.6890409,87.1367113 80.6516823,86.7467536 79.1740241,86.8366187 C78.412087,86.8809414 77.64328,87.0395269 77.0462211,87.275372 C76.4241807,87.4998314 76.0069889,87.7885384 75.8926984,88.0735857 L75.8970701,88.0756188 Z M78.0017651,89.6655401 C75.4242944,89.7793964 73.6318687,89.1056113 73.9378926,88.1374265 C74.0940272,87.6637031 74.7735252,87.1826604 75.806512,86.8097812 C76.8020265,86.4202301 78.0848288,86.1652734 79.3395268,86.1067188 C81.9138748,85.9924559 83.7069251,86.666241 83.4040239,87.6348324 C83.2491383,88.1065227 82.5690158,88.587972 81.5329063,88.9620711 C80.5405145,89.3508089 79.2583368,89.6049523 77.9973934,89.663507 L78.0017651,89.6655401 Z M67.4489367,86.5096886 C66.238581,86.0697155 65.7177158,85.4069094 66.0000072,84.6717233 C66.215473,83.9438565 67.2359691,83.1976914 68.8166762,82.6141781 C70.3717773,82.0188725 72.3559364,81.6354209 74.2895078,81.5557215 C76.2536817,81.4430851 78.0336166,81.634201 79.21337,82.0875929 C80.3675173,82.5068279 80.8802635,83.1375102 80.6285744,83.8389461 L78.6244301,83.949956 C78.7874347,83.4481752 78.4139606,82.9988496 77.5839488,82.6999769 C76.7464426,82.3722335 75.465514,82.2392657 74.0559304,82.3287242 C72.656964,82.400291 71.2298933,82.6849316 70.1125938,83.1163655 C68.9890489,83.5327541 68.245848,84.0617791 68.0578619,84.5834847 C67.6631535,85.6622728 69.6254537,86.4226699 72.4808441,86.2986479 C73.4051612,86.2352137 74.3294783,86.060363 75.1138987,85.8025599 L72.2341513,84.7201122 L73.862948,84.1081348 L77.9399358,85.6407214 C77.6526481,85.7789754 77.3328843,85.9099101 76.995009,86.0323056 C75.6578718,86.5723096 73.9210301,86.9390894 72.1916827,87.0464396 C70.2805947,87.1611091 68.5556191,86.9659269 67.4489367,86.5096886 L67.4489367,86.5096886 Z M104.568137,100.463546 C103.467701,100.067082 102.986806,99.4681167 103.241618,98.8028708 C103.491433,98.1372184 104.453222,97.4638399 105.905899,96.9372547 C107.303616,96.3923712 109.096042,96.0308776 110.868483,95.9357263 C112.635302,95.8409816 114.232872,96.0207118 115.283346,96.4354739 C116.42188,96.8290913 116.850313,97.4553007 116.451858,98.1368117 L114.8724,98.210005 C115.215896,97.6919591 114.901753,97.2084766 114.024276,96.9128569 C113.246726,96.6034119 112.06947,96.467191 110.754817,96.5346915 C109.386453,96.6078848 107.994356,96.8937454 106.927644,97.321113 C105.787237,97.7236762 105.029671,98.2453818 104.832942,98.760988 C104.651826,99.2550428 105.014683,99.6978624 105.8372,99.9898223 C106.754647,100.344403 108.182967,100.471272 109.723079,100.333424 L109.500119,100.936049 C108.567058,101.016155 107.651484,101.018188 106.83209,100.940929 C105.939624,100.859603 105.165196,100.697764 104.568137,100.463546 M108.756293,101.866092 L109.748685,102.238971 L120.013601,98.3804641 L119.021834,98.0075849 L108.756293,101.866092 Z M113.776397,102.501044 C113.513466,103.09635 114.625145,103.514365 116.208975,103.415147 C117.060845,103.360252 117.908344,103.180522 118.567232,102.916213 C119.271712,102.668169 119.748859,102.349778 119.89625,102.029354 C120.159806,101.434048 119.047502,101.016033 117.463048,101.115251 C116.613676,101.170959 115.766801,101.350689 115.107913,101.615405 C114.409054,101.863042 113.931282,102.181433 113.787638,102.500637 L113.776397,102.501044 Z M117.547985,100.527265 C120.059255,100.39877 121.809212,101.05629 121.465716,101.99967 C121.261492,102.463228 120.576997,102.927598 119.56462,103.290719 C118.59721,103.67173 117.363122,103.929127 116.129658,104.005167 C113.619638,104.135288 111.86968,103.476955 112.211928,102.532761 C112.418025,102.070017 113.100021,101.605239 114.112399,101.241306 C115.079809,100.861107 116.31702,100.604524 117.547985,100.527265 L117.547985,100.527265 Z M121.563019,106.680138 L120.603728,106.319051 L121.576134,105.953491 L121.546781,105.942512 C121.005306,106.017332 120.461333,106.039697 119.968572,106.008793 C119.440837,105.981955 118.978054,105.900223 118.633308,105.770508 C118.01564,105.575732 117.755207,105.256122 117.926955,104.902761 C118.173023,104.537201 118.755718,104.1814 119.562622,103.902452 L123.885678,102.277561 L124.878694,102.65044 L120.79671,104.184653 C119.490175,104.675861 119.270962,105.086964 120.144067,105.415114 C120.522538,105.569633 121.13521,105.621275 121.789102,105.555401 C122.480466,105.489527 123.151845,105.338667 123.695818,105.130066 L127.586069,103.668233 L128.580334,104.042333 L121.563019,106.680138 Z M126.073187,107.643891 C126.51536,107.817928 127.202352,107.887055 127.953672,107.835413 C128.800547,107.770759 129.638053,107.585336 130.283201,107.320214 C130.98893,107.077456 131.481691,106.763131 131.654063,106.444334 C131.945723,105.850248 130.832795,105.431826 129.253962,105.542023 C128.407712,105.604644 127.573328,105.788847 126.930678,106.054783 C126.222451,106.296727 125.733438,106.610238 125.566061,106.928223 C125.418046,107.213677 125.602909,107.474733 126.073187,107.643891 M124.706696,108.033442 C124.020953,107.778485 123.76739,107.386494 124.007838,106.961973 C124.235794,106.502482 124.92466,106.042584 125.923922,105.681497 C126.88821,105.304551 128.108558,105.046748 129.333903,104.959729 C130.46057,104.870677 131.501052,104.966235 132.181174,105.223632 C132.564641,105.363512 132.825073,105.547716 132.921877,105.761196 C133.021803,105.945399 132.974338,106.149121 132.784478,106.354062 L132.826947,106.36992 L133.758134,105.988502 L137.00511,104.7678 L138,105.141493 L127.734459,109 L126.775168,108.638913 L127.748199,108.273353 L127.703232,108.256681 C127.158635,108.328248 126.615911,108.345733 126.125648,108.308323 C125.564188,108.27132 125.073925,108.177389 124.706696,108.033442" id="Fill-7" fill="#D82071"></path>
                <path d="M278.887869,107.008165 C278.464708,106.845265 278.108668,106.656519 277.835942,106.448257 C277.563104,106.239995 277.391003,106.061974 277.347,105.915982 C277.317293,105.827195 277.339518,105.749656 277.40742,105.698484 C277.475434,105.647238 277.57081,105.597928 277.671323,105.55927 L278.240899,105.339984 C278.475429,105.249633 278.652221,105.231682 278.774177,105.278683 C278.823094,105.297453 278.86073,105.320618 278.887199,105.347954 C278.913667,105.375365 278.942258,105.420727 278.978889,105.469292 C279.088002,105.640385 279.255077,105.807903 279.483019,105.964398 C279.719114,106.12417 279.991728,106.263532 280.317168,106.388892 C280.829785,106.586279 281.351338,106.692495 281.873672,106.704413 C282.396006,106.716256 282.899801,106.635067 283.357694,106.458759 C283.670402,106.338316 283.854118,106.211243 283.919899,106.073072 C283.985567,105.93505 283.898791,105.755391 283.678778,105.533051 L283.001654,104.885249 C282.664488,104.557661 282.60485,104.242215 282.838934,103.945389 C283.06185,103.652735 283.470716,103.388758 284.051459,103.165152 C284.520633,102.984524 285.007006,102.853653 285.510912,102.772389 C286.014595,102.6912 286.522634,102.645987 287.012469,102.645316 C287.51336,102.6404 287.979853,102.673844 288.439311,102.747511 C288.89888,102.821252 289.296354,102.931341 289.654404,103.06914 C289.83343,103.138114 290.009328,103.214461 290.154849,103.296321 C290.308522,103.381309 290.434722,103.464286 290.560923,103.547189 C290.667802,103.631432 290.766416,103.712398 290.845933,103.794556 C290.925339,103.876788 290.972245,103.946507 290.986652,104.003637 C291.011222,104.081922 291.003181,104.147618 290.951584,104.205121 C290.910932,104.258304 290.812541,104.315062 290.656187,104.375172 L290.131284,104.577326 C289.896753,104.667677 289.708905,104.689874 289.586837,104.642873 C289.521727,104.617846 289.460637,104.559896 289.411609,104.472226 C289.238279,104.181881 288.862695,103.925427 288.285079,103.703013 C287.821266,103.524396 287.354661,103.422127 286.890178,103.406709 C286.425806,103.39129 285.97171,103.465851 285.513816,103.642233 C285.201108,103.762676 285.014377,103.897123 284.965013,104.04155 C284.915538,104.185904 285.004437,104.383588 285.24578,104.622687 L285.898447,105.261104 C286.22746,105.585564 286.293129,105.886113 286.087523,106.159476 C285.881806,106.432987 285.478971,106.682067 284.898116,106.905748 C284.417998,107.090621 283.909177,107.230133 283.391087,107.323165 C282.864956,107.412995 282.334581,107.466699 281.814369,107.472807 C281.282989,107.483235 280.780869,107.444726 280.285897,107.36592 C279.76334,107.285178 279.302765,107.168012 278.887869,107.008165 L278.887869,107.008165 Z M268.734241,102.866241 C268.587827,102.809855 268.523722,102.759354 268.536788,102.70416 C268.538687,102.653286 268.638195,102.571203 268.801585,102.470648 L275.522461,98.4101359 C275.697019,98.3053346 275.817747,98.2400851 275.895924,98.2099929 C276.074726,98.1411682 276.240238,98.1274628 276.370458,98.1776661 L277.167863,98.4846216 C277.322319,98.5442101 277.394688,98.5978398 277.373357,98.6498308 C277.371459,98.700779 277.263909,98.7797338 277.100631,98.8802894 L271.07419,102.253447 L279.736759,99.8953056 C280.000774,99.8249167 280.194765,99.7878228 280.326884,99.7871524 C280.459003,99.7864076 280.617591,99.812999 280.764005,99.8694591 L281.414884,100.120029 C281.569563,100.179617 281.641821,100.233247 281.628754,100.288366 C281.626744,100.339315 281.527348,100.421398 281.347652,100.515622 L275.150562,103.891909 L284.04085,101.552686 C284.313017,101.485426 284.515161,101.45146 284.639127,101.447661 C284.771246,101.446842 284.921569,101.47038 285.068095,101.526765 L285.824737,101.818153 C285.954957,101.868282 285.938875,101.93085 285.749017,102.00392 C285.693176,102.025447 285.629071,102.043919 285.553909,102.066488 C285.47886,102.089206 285.373209,102.117362 285.21786,102.152147 L274.623984,104.721306 C274.351816,104.788493 274.149673,104.822458 274.017666,104.82322 C273.885435,104.823948 273.735112,104.80041 273.596738,104.747228 L272.897054,104.477738 C272.742487,104.418224 272.670229,104.364595 272.683296,104.309475 C272.696363,104.254207 272.784591,104.176369 272.975455,104.077825 L278.9178,100.818481 L270.472451,103.105489 C270.208436,103.175878 270.014445,103.212972 269.871158,103.217962 C269.727871,103.223027 269.580451,103.192116 269.434037,103.135656 L268.734241,102.866241 Z M263.407037,99.8859949 C263.675631,99.9894555 264.019163,100.070123 264.446121,100.131351 C264.873079,100.192503 265.379108,100.19809 265.93383,100.153771 C266.276245,100.122114 266.608385,100.069453 266.925226,99.9849864 C267.242066,99.9005941 267.598553,99.7884187 267.978158,99.6421288 L268.447332,99.4615756 C268.289526,99.3406109 268.104246,99.2177095 267.888589,99.1002456 C267.672933,98.9827817 267.442981,98.8770865 267.190804,98.7798827 C266.645687,98.5700566 266.101798,98.4724059 265.531776,98.485143 C264.961755,98.49788 264.407145,98.6111727 263.848737,98.8261383 C263.323835,99.0282924 263.030671,99.2164432 262.966008,99.3979648 C262.882023,99.5806037 263.032793,99.7418651 263.407037,99.8859949 L263.407037,99.8859949 Z M268.407908,100.504375 C267.994687,100.663402 267.692254,100.804999 267.5034,100.921495 C267.322923,101.041268 267.136192,101.175714 266.959735,101.331389 C266.911042,101.381518 266.838002,101.422187 266.759825,101.45228 C266.648144,101.495258 266.487658,101.519466 266.270214,101.521775 L265.288534,101.504941 C265.148374,101.502632 265.041607,101.487288 264.976496,101.462261 C264.895081,101.430902 264.869617,101.378092 264.888715,101.308075 C264.942322,101.199699 265.023403,101.093259 265.120789,100.99315 C265.229232,100.888721 265.360122,100.775652 265.527421,100.642248 C263.865378,100.793528 262.554238,100.684407 261.594225,100.31466 C260.910734,100.051502 260.633653,99.7383643 260.771021,99.3783751 C260.908389,99.0184603 261.419778,98.6649514 262.31323,98.3209021 C263.262522,97.9554009 264.277259,97.7526509 265.354315,97.7201752 C266.43137,97.6876249 267.380774,97.8295201 268.218831,98.152192 C268.495355,98.258781 268.746638,98.3813844 268.99189,98.518736 C269.237031,98.6561621 269.456932,98.809677 269.681858,98.9736945 L270.497132,98.6597374 C271.345911,98.3328943 271.807602,98.0548393 271.901638,97.8243806 C271.987409,97.5907936 271.715577,97.3572065 271.089156,97.1158729 C270.804368,97.0063045 270.466755,96.9107394 270.06526,96.8334233 C269.663654,96.7562561 269.247976,96.6907088 268.806834,96.6413248 C268.598437,96.6212881 268.456154,96.600879 268.376861,96.5876206 C268.297567,96.5742132 268.245747,96.5628913 268.213136,96.5503778 C268.099221,96.5065057 268.154056,96.4415542 268.388475,96.3512776 L268.935826,96.1405576 C269.114405,96.0717329 269.264728,96.0263711 269.383557,96.0119209 C269.502498,95.9975451 269.653826,95.995534 269.845918,96.0093884 C270.331732,96.0416406 270.840999,96.1086777 271.37372,96.2105741 C271.917497,96.3082248 272.407666,96.4452785 272.855062,96.6176383 C273.82334,96.9904391 274.229637,97.3791798 274.082218,97.7867653 C273.926645,98.191297 273.238688,98.6316563 272.010192,99.1047892 L268.391714,100.498118 L268.407908,100.504375 Z M274.997893,109.690305 C269.607143,109.704606 264.277371,108.761767 260.933406,107.474133 C256.246918,105.669569 254.403058,103.127596 255.167182,100.377139 C255.227602,100.159566 255.879822,100.083814 255.935216,100.294385 C256.63758,102.680682 259.228812,104.959944 263.630512,106.65494 C266.600233,107.798443 270.711672,108.72795 275.456122,109.21315 C276.182833,109.277952 275.883974,109.687474 274.997893,109.690305 M277.854771,109.448666 C278.116106,109.084878 275.883259,108.465977 274.867517,108.186655 C274.562515,108.103529 274.834571,107.967444 275.304973,107.968038 C278.308756,107.989343 280.398539,109.120855 280.200081,109.422819 C279.990343,109.729179 276.165143,110.913874 273.080279,110.998936 C272.603734,111.013237 272.526227,110.880206 272.958881,110.788738 C274.389967,110.488337 277.604605,109.808208 277.854771,109.448666" id="Fill-1" fill="#D82071"></path>
                <path d="M227.067304,36.1808376 L234.773834,31.2333357 C234.88324,31.1660187 235.021699,31.0748727 235.187851,31.0117258 C235.637732,30.8413482 236.338201,30.7829671 236.729066,30.931005 C237.070903,31.0605753 236.984649,31.2616327 236.636457,31.4707324 L229.907316,35.7003848 L241.113472,33.1479981 C241.641434,33.0252786 242.15487,32.9859607 242.493983,33.1146375 L242.56344,33.1408494 C242.922527,33.2766748 242.835365,33.4777323 242.511687,33.6773004 L235.755309,37.9155908 L247.002775,35.3620126 C247.469906,35.2497183 247.98652,35.1949116 248.345607,35.3310349 C248.720583,35.4731155 248.592111,35.7289796 248.139506,35.9002508 C247.974263,35.9630998 247.733207,36.014928 247.555252,36.0572245 L234.453788,38.979259 C233.772838,39.1326583 233.215368,39.1380199 232.908033,39.0215555 L232.856735,39.0021944 C232.515352,38.8729219 232.54486,38.6676944 232.96841,38.4162982 L239.592685,34.2408569 L228.551773,36.7432026 C227.888529,36.9037507 227.346493,36.9147716 227.006472,36.785797 L226.970609,36.7720953 C226.647385,36.6499715 226.661004,36.4387868 227.067304,36.1808376 M257.436507,39.4611117 C257.937685,39.2710752 258.655406,39.2192471 259.013585,39.3547747 C259.391285,39.4977488 259.275978,39.7607617 258.751193,39.9594362 L256.644336,40.7577087 C259.339079,40.2278107 261.743738,40.4071241 262.697067,40.7684317 C263.092017,40.9179589 262.944024,41.1678658 262.420601,41.3662424 C261.920331,41.5556832 261.326997,41.6000648 260.911164,41.4967064 C258.916436,40.9572768 255.73141,41.1038253 252.184572,42.4471867 L248.012169,44.0279448 C247.512352,44.2173856 246.811882,44.2757667 246.436452,44.1336861 C246.060114,43.9910098 246.176329,43.7268055 246.697029,43.5296203 L257.436507,39.4611117 Z M264.484922,45.7223376 C266.566357,44.8320256 267.591412,43.7585279 265.866795,43.1053147 C264.360535,42.5346095 261.456513,42.772304 258.911579,43.6110858 L264.484922,45.7223376 Z M254.881267,47.4201558 C252.503392,46.5194186 253.13032,44.8105794 256.897785,43.3835186 L256.946813,43.3650511 C260.455518,42.0359871 265.040123,41.6314893 267.433886,42.5381838 C269.993802,43.5077274 268.509786,45.17427 265.281179,46.3975927 C264.785447,46.5849484 264.143539,46.6105646 263.827579,46.4911216 L257.569201,44.1201334 C255.115514,45.1876738 254.953902,46.2501506 256.496025,46.8342596 C257.567839,47.2405445 258.941087,47.3147124 260.402858,47.2435231 C260.619854,47.2375659 260.830948,47.2462039 260.982573,47.3036914 C261.299441,47.4237302 261.198207,47.6530845 260.772386,47.8142283 C260.561292,47.8943535 260.281649,47.9497559 259.983393,47.9598833 C258.058123,48.0686032 256.353026,47.977755 254.881267,47.4201558 L254.881267,47.4201558 Z M247.58199,41.0466952 L248.768658,40.5972202 C248.380517,40.2528907 247.772202,39.8242661 246.699934,39.4179812 C245.049767,38.7930649 243.131306,38.8219576 241.590545,39.4054709 L241.543786,39.4236406 C240.001663,40.0077496 240.121056,40.7357264 241.314533,41.18818 C242.932015,41.800586 245.638561,41.7830121 247.58199,41.0466952 M240.141939,38.9476557 L240.189605,38.9294861 C242.774942,37.9501131 245.686228,38.0090899 247.916563,38.8541268 C249.041492,39.2800707 249.62847,39.6640159 250.102865,40.0792367 L250.532317,39.9166036 C252.736322,39.0813962 252.903382,38.280443 251.253215,37.6552289 C250.367073,37.3195374 249.693841,37.183712 248.642909,37.0904809 C248.511713,37.0767792 248.401399,37.0535459 248.334666,37.0282276 C248.027785,36.9120611 248.111315,36.6731751 248.537135,36.5117334 C248.915743,36.3681635 249.268929,36.3243777 249.656616,36.3592276 C251.048476,36.4890958 251.87651,36.67109 253.000077,37.0964382 C254.242582,37.5673593 254.747393,38.0990445 254.491356,38.6855364 C254.258471,39.2264554 253.379139,39.791799 251.812501,40.3851418 L245.043865,42.949443 C244.52362,43.1466282 243.870363,43.1874354 243.510368,43.0510143 C243.137207,42.9098273 243.264318,42.6700477 243.738259,42.4907343 L244.90813,42.0472165 C243.176703,42.2378487 241.158823,42.2271256 239.61216,41.6409316 C237.977428,41.0204833 237.626966,39.9002211 240.141939,38.9476557 M214.195774,22.9784245 C214.7882,22.5355024 214.474055,22.1143244 213.396339,22.0181147 C212.317262,21.921905 211.042979,22.2191721 210.462356,22.6668599 L204.795042,26.9313623 C203.908446,27.6003622 203.676923,28.0391142 204.546269,28.3685505 C205.475083,28.7203265 206.637237,28.5871818 208.340518,28.2744258 C208.340518,28.2744258 218.172064,26.3969963 218.273752,26.3770395 C218.376802,26.3567849 218.694125,26.2960208 218.940174,26.3910391 C219.148091,26.4708663 219.091345,26.6260529 218.778108,26.7449001 L211.547789,29.483749 C210.432848,29.9061185 209.962539,30.4205276 210.816449,30.7440067 C211.669452,31.0671879 213.044969,30.8956189 214.159456,30.4732493 L220.076452,28.2318314 C221.217269,27.7996325 222.54512,27.7415492 223.345008,28.0444757 C224.145351,28.3477001 223.91065,28.8400674 222.796163,29.262139 L216.879168,31.5035569 C215.764681,31.9259264 215.295734,32.4409313 216.148282,32.7638146 C217.001285,33.0869958 218.379072,32.9160225 219.493559,32.4939509 L225.410554,30.252533 C226.551371,29.820334 227.876499,29.7610593 228.677295,30.0645815 C229.476275,30.3672102 229.243391,30.8601732 228.128904,31.2822448 L222.211909,33.5236627 C221.097422,33.9460322 220.628021,34.4607392 221.481477,34.7839204 C222.334026,35.1071016 223.710905,34.9361283 224.825846,34.5137588 L231.559526,31.9628614 C234.034096,31.0254871 234.339161,29.8274827 232.619537,29.1760567 C230.902637,28.5258221 228.172485,28.7450491 228.172485,28.7450491 C228.63326,28.1374089 228.465293,27.6039366 227.131994,27.0987612 C225.724699,26.5658846 222.840652,26.7252412 222.840652,26.7252412 C223.300973,26.117601 222.947334,25.513833 222.14109,25.2082257 C220.894045,24.7358153 219.139919,24.6500308 216.611782,25.1501425 L208.966537,26.6939656 L214.195774,22.9784245 Z M272.002193,45.4241769 L272.006279,45.4226876 C272.687228,45.1650362 272.867907,44.8099837 272.364458,44.6196494 C271.865096,44.4305064 270.914036,44.5002064 270.238535,44.7563684 L270.230817,44.759347 C269.55123,45.0167005 269.371913,45.3714552 269.875362,45.5623853 C270.372909,45.7509324 271.323514,45.6812325 272.002193,45.4241769 M270.022447,44.6822006 L270.032434,44.6780305 C270.860468,44.3643809 272.039873,44.2830643 272.646371,44.5124187 C273.261042,44.7456453 273.046769,45.1870781 272.217827,45.5013234 L272.211472,45.5037063 C271.380714,45.8182494 270.202217,45.9004596 269.592995,45.669318 C268.977871,45.4363893 269.192143,44.9964458 270.022447,44.6822006 M271.2206,45.1753916 C271.334091,45.2269063 271.478453,45.217605 271.604201,45.1607242 L271.609195,45.15822 C271.745839,45.095973 271.752648,45.0322951 271.640064,44.9807804 L271.408088,44.8752468 L270.985445,45.0677115 L271.221054,45.1750338 L271.2206,45.1753916 Z M271.304583,44.7114013 C271.394923,44.6706188 271.518402,44.6613176 271.584227,44.6910101 L271.947854,44.8562865 C272.084497,44.9185334 272.13625,44.9911549 272.10538,45.0648496 C272.084043,45.129243 271.999152,45.1975715 271.862962,45.259103 L271.858422,45.2612494 C271.626899,45.3667831 271.401732,45.3925404 271.200625,45.3689295 L271.088496,45.5660449 C271.070337,45.5946642 271.051724,45.6168441 271.001788,45.6397396 C270.912357,45.6801643 270.798411,45.6823108 270.743027,45.6572689 C270.691275,45.633658 270.693091,45.6007458 270.712612,45.5674758 L270.884665,45.2834294 L270.699447,45.1986447 L270.3794,45.3446031 C270.289061,45.3857434 270.168306,45.3950446 270.102935,45.3653521 C270.037564,45.3353019 270.057084,45.2794942 270.14697,45.2387117 L271.305037,44.7117591 L271.304583,44.7114013 Z" id="Fill-16" fill="#D82071"></path>
                <path d="M189.931852,127.191906 C190.428175,126.989729 191.128392,126.947041 191.49567,127.09678 L191.49567,127.09678 L205.589348,132.838388 C205.781438,132.905686 206.729011,133.215104 207.657402,133.265459 C208.159627,132.705023 209.130541,132.204312 210.506025,131.813872 C211.218851,131.612451 211.997675,131.448798 212.768986,131.336729 L212.768986,131.336729 L213.356391,131.259115 L213.422656,131.482873 C213.418632,131.524898 213.686512,132.442836 211.852534,133.367873 C212.217398,133.461862 212.565226,133.570807 212.863019,133.692151 C214.014219,134.161153 214,134.603558 213.992756,134.655144 L213.992756,134.655144 L214,134.822016 L213.561895,134.927742 C212.93009,135.063758 212.292383,135.153772 211.665675,135.182641 C210.685505,135.242366 209.273804,135.202802 208.053119,134.705499 C207.983634,134.677103 207.924075,134.652872 207.85459,134.624571 C205.678149,135.114965 203.108272,135.620124 200.283125,135.857228 C198.598714,136.001667 196.942741,136.037446 195.385094,135.960304 C193.504971,135.861014 191.79011,135.621449 190.294168,135.252494 C189.216075,134.98813 188.235235,134.676062 187.361841,134.320169 C185.426452,133.531716 184.205633,132.630058 184.025616,131.846243 C183.870549,131.149223 184.420393,130.334835 185.651139,129.437247 C186.793753,128.623995 188.248649,127.861476 189.931852,127.191906 Z M206.186316,130.589667 C206.320457,130.534958 206.493768,130.52909 206.583106,130.565436 L206.583106,130.565436 L208.468863,131.333634 C208.568127,131.374145 208.530299,131.446176 208.409572,131.4953 L208.409572,131.4953 L206.129172,132.424313 C205.995031,132.478927 205.821855,132.48489 205.732517,132.448543 L205.732517,132.448543 L203.846626,131.680251 C203.757288,131.643904 203.781836,131.577364 203.905916,131.518585 L203.905916,131.518585 Z M203.556156,129.518175 C203.690298,129.463466 203.863608,129.457503 203.952946,129.493944 L203.952946,129.493944 L205.838703,130.262142 C205.937967,130.302653 205.900139,130.374684 205.779412,130.423808 L205.779412,130.423808 L203.499012,131.35282 C203.364871,131.407435 203.191561,131.413398 203.102357,131.377051 L203.102357,131.377051 L201.216466,130.608759 C201.127128,130.572412 201.141615,130.501802 201.275756,130.447093 L201.275756,130.447093 Z M200.945769,128.454672 C201.07991,128.400057 201.253221,128.394094 201.342559,128.430535 L201.342559,128.430535 L203.22845,129.198733 C203.32758,129.239244 203.289752,129.31118 203.169159,129.360399 L203.169159,129.360399 L200.888759,130.289411 C200.754618,130.344026 200.581307,130.349989 200.491969,130.313548 L200.491969,130.313548 L198.606078,129.54535 C198.506948,129.504933 198.531228,129.438393 198.665369,129.383684 L198.665369,129.383684 Z M206.81576,128.190223 C206.949902,128.135514 207.123212,128.129645 207.21255,128.165992 L207.21255,128.165992 L209.098307,128.934284 C209.187645,128.970631 209.159743,129.046731 209.03915,129.095856 L209.03915,129.095856 L206.75875,130.024868 C206.637889,130.074087 206.451299,130.085445 206.361961,130.049099 L206.361961,130.049099 L204.47607,129.280806 C204.386732,129.24446 204.414633,129.168359 204.53536,129.11914 L204.53536,129.11914 Z M198.295837,127.375087 C198.429978,127.320472 198.603288,127.314509 198.692492,127.35095 L198.692492,127.35095 L200.578383,128.119148 C200.677648,128.159659 200.63982,128.231595 200.519093,128.280814 L200.519093,128.280814 L198.238693,129.209826 C198.104551,129.264441 197.931241,129.270404 197.841903,129.233963 L197.841903,129.233963 L195.956146,128.465765 C195.866808,128.429324 195.891222,128.362783 196.015437,128.304099 L196.015437,128.304099 Z M204.205373,127.126814 C204.339514,127.072105 204.512825,127.066236 204.602163,127.102583 L204.602163,127.102583 L206.488053,127.870875 C206.587318,127.911292 206.54949,127.983322 206.428763,128.032447 L206.428763,128.032447 L204.148363,128.961459 C204.027502,129.010678 203.840911,129.022036 203.751573,128.98569 L203.751573,128.98569 L201.865817,128.217397 C201.766552,128.176981 201.80438,128.10495 201.924973,128.055731 L201.924973,128.055731 Z M210.088859,126.856818 C210.223,126.802109 210.396311,126.796241 210.485514,126.832587 L210.485514,126.832587 L212.371405,127.60088 C212.460743,127.637226 212.432842,127.713326 212.312115,127.762451 L212.312115,127.762451 L210.031715,128.691463 C209.897574,128.746172 209.724263,128.752041 209.634925,128.715694 L209.634925,128.715694 L207.749168,127.947402 C207.65983,127.911055 207.687732,127.834955 207.808459,127.785735 L207.808459,127.785735 Z M195.695403,126.315804 C195.829544,126.261095 196.002854,126.255132 196.092192,126.291574 L196.092192,126.291574 L197.977949,127.059771 C198.077213,127.100283 198.039386,127.172313 197.918793,127.221438 L197.918793,127.221438 L195.638393,128.15045 C195.504251,128.205064 195.330941,128.211027 195.241603,128.174681 L195.241603,128.174681 L193.355712,127.406388 C193.266374,127.370042 193.290922,127.303501 193.415002,127.244722 L193.415002,127.244722 Z M201.555441,126.047238 C201.689582,125.992529 201.862892,125.986566 201.95223,126.023007 L201.95223,126.023007 L203.837987,126.791205 C203.937252,126.831716 203.899424,126.903747 203.778697,126.952871 L203.778697,126.952871 L201.498297,127.881883 C201.377569,127.931102 201.190979,127.942461 201.101641,127.906114 L201.101641,127.906114 L199.21575,127.137822 C199.126412,127.101475 199.16424,127.02935 199.275041,126.976156 L199.275041,126.976156 Z" id="Fill-2" fill="#D82071"></path>
            </g>
            <g id="Cube---k8s---big" transform="translate(0.000000, 133.000000)">
                <polygon id="Path-20-Copy" fill-opacity="0.32" fill="url(#linearGradient-1)" transform="translate(199.500000, 130.000000) scale(1, -1) translate(-199.500000, -130.000000) " points="0 173.981132 0 19 199.5 86.0188679 399 19 399 173.981132 199.5 241"></polygon>
                <g id="Group-5">
                    <g id="Cube-/-Yellow-L-Copy">
                        <polygon id="Path-9" fill="#0D0D28" points="0 85.9187705 199.644713 161.262923 399.289426 85.9187705 399.289426 75.3441526 199.644713 0 0 75.3441526"></polygon>
                        <path d="M199.778501,150.688305 L199.778501,161.262923" id="Path-9" stroke="#FFBF26"></path>
                        <line x1="199.644713" y1="10.5746179" x2="199.644713" y2="0" id="Path-116" stroke="#574226" stroke-width="0.4"></line>
                        <polyline id="Path-9" stroke="#BF8700" stroke-width="0.4" points="397.975974 85.9187705 302.850124 49.7813685 199.644713 10.5746179 1.31345206 85.9187705"></polyline>
                        <polyline id="Path-58" stroke="#FFBF26" points="2.21650157e-14 75.3441526 199.644713 150.688305 399.289426 75.3441526"></polyline>
                        <polygon id="Path-9" stroke="#FFBF26" points="0 85.8570287 199.501247 161.147038 399.002494 85.8570287 399.002494 75.2900098 199.501247 0 0 75.2900098"></polygon>
                    </g>
                    <path d="M192.695236,67.4141435 L192.965802,60.1657564 C185.480624,61.4115005 178.579853,63.5507403 173.314569,66.2059931 L188.260677,68.829832 C188.856186,68.9467332 189.221187,68.9755722 189.85263,68.8839053 C191.481331,68.7299253 192.702119,68.0846515 192.695236,67.4141435 Z M192.569078,73.826507 L193.950744,75.8055871 L198.807178,76.2232384 L203.49,74.7921003 L204.502775,72.5071203 L201.036837,71.176404 L195.634593,71.7742994 L192.569078,73.826507 Z M215.68817,71.2348546 L232.910754,71.3908945 C233.453902,68.2577373 231.487208,65.3856766 227.072579,63.1326255 L214.26995,69.4648577 C213.869113,69.6451018 213.717257,69.8098964 213.681323,70.0184645 C213.323302,70.6606484 214.3451,71.1648169 215.68817,71.2348546 Z M168.420568,69.561211 C164.693319,72.5851918 163.250753,75.930007 164.220286,78.8648957 L180.90303,75.0256967 C181.53457,74.9345447 182.068986,74.6940476 182.354423,74.4689999 C183.308148,73.9447472 183.05147,73.2891737 182.128231,72.9343503 L168.420568,69.561211 Z M207.722573,66.7265896 L221.662206,60.9422994 L218.816937,60.2944507 C213.705358,59.2217409 207.603598,58.882882 201.259838,59.2304956 L202.963883,66.4577684 C203.17693,66.650887 203.273956,66.7997172 203.62068,66.9330978 C204.660658,67.3322097 206.519247,67.2668068 207.722573,66.7265896 Z M213.682084,75.700479 C213.183406,75.731378 212.800846,75.8070805 212.284706,75.9430361 C210.850774,76.3946762 210.226311,77.1573662 210.999129,77.6769842 L218.364163,83.5148326 C221.401441,82.342216 224.091996,81.0362189 226.320622,79.5530676 C228.548529,78.0699163 230.296948,76.5141523 231.431289,74.9444838 L213.682084,75.700479 Z M222.695856,92.6424445 C222.714133,92.5379029 222.714133,92.5379029 222.598112,92.4936144 C222.367506,92.4050373 222.385066,92.3004957 222.27048,92.2562072 C221.941315,92.018285 221.861946,91.7654283 221.667176,91.467768 C221.436473,91.378676 221.338826,91.2303608 221.2418,91.0815307 L221.125682,91.0367272 C220.505536,90.3528296 219.635692,89.6843816 218.632269,89.0761865 L218.516869,89.031383 C218.170339,88.8990323 217.689938,88.8253898 217.191455,88.8573187 C217.191455,88.8573187 217.058495,88.9170568 216.943192,88.8727682 L216.152001,88.4571768 C206.456572,91.0820457 195.538313,92.2340629 185.504891,91.8328911 L184.782587,92.4462359 C184.782587,92.4462359 184.666567,92.4019474 184.532987,92.4622004 C183.901447,92.5533524 183.366933,92.7933345 183.081496,93.0183821 C182.207238,93.7960066 181.448478,94.6189496 181.054523,95.4697017 L180.787364,95.5902077 C180.75143,95.7987759 180.733153,95.9033175 180.581297,96.0681121 C180.527087,96.3812218 180.356856,96.650043 180.053763,96.9791172 C180.036203,97.0836587 180.017927,97.1882003 179.884347,97.2484533 C179.884347,97.2484533 179.999552,97.2922269 179.86607,97.3529949 C179.428582,97.7418071 178.760488,98.0420423 177.977091,98.2979889 C177.193695,98.5539355 176.197251,98.6167634 175.467967,98.5590853 C174.986945,98.4859577 174.622662,98.4571186 174.276036,98.324253 C173.352079,97.9694297 173.21214,97.3581447 173.684746,96.7602493 C173.569443,96.7159608 173.703023,96.6557078 173.703023,96.6557078 C173.7213,96.5511662 173.854977,96.4914282 173.872536,96.3868866 C174.042767,96.1180654 174.461881,95.8332798 174.880374,95.5490091 L175.452159,95.0999438 L175.584924,95.0391758 C176.708065,94.2455869 177.46764,93.4231589 178.225781,92.6007309 C178.396011,92.3319097 178.316447,92.078023 178.1034,91.8849043 C178.237078,91.8251663 178.237078,91.8251663 178.121057,91.7808778 L178.595098,91.1829824 C177.038787,90.9187961 175.233689,90.6710892 173.695849,90.3033913 C170.948324,89.8043726 168.60183,89.1261399 166.522399,88.3268861 C163.057081,86.9956548 160.375063,85.4079619 158.610934,83.5050994 L157.079976,83.8079094 C156.946396,83.8681625 156.946396,83.8681625 156.830996,83.8233589 C156.350789,83.7507463 155.736808,83.7373568 155.105366,83.8290237 C153.19113,84.2075363 151.276992,84.5865639 149.461218,85.1139066 L148.428841,85.3853027 C147.778307,85.5809962 147.146864,85.6726632 146.496427,85.8688718 C146.247446,85.8843213 145.997749,85.8997708 145.864169,85.9600238 C145.749583,85.9157353 145.616004,85.9759883 145.616004,85.9759883 C144.218005,86.2190603 142.741161,86.2082457 141.817204,85.8534223 C141.586598,85.7648452 141.373454,85.5712116 141.27571,85.4223815 C140.904447,84.7225194 142.045865,83.8243889 143.959383,83.4458763 C144.074686,83.4901649 144.208983,83.4299118 144.208983,83.4299118 C144.457963,83.4144624 144.591543,83.3542093 144.840523,83.3387598 C145.721664,83.2316434 146.486784,83.0802383 146.985267,83.0483094 C147.483228,83.0174104 147.732828,83.0014459 148.115388,82.9257434 L148.249065,82.8660054 C150.145024,82.5920343 152.174465,82.2572953 153.972679,81.8344942 C154.488722,81.6980237 155.022518,81.4580416 155.192749,81.1892204 C155.192749,81.1892204 155.077446,81.1449318 155.211026,81.0846788 L156.723707,80.8864103 C156.237141,80.1422597 156.11476,79.4264332 156.010037,78.6065801 C155.513925,75.0743111 157.757447,71.3690077 162.171784,67.9402502 L160.99813,67.6008764 C160.99813,67.6008764 161.131807,67.5411383 161.016504,67.4968498 C161.05234,67.2877666 160.840011,67.094648 160.493287,66.9612674 L160.377266,66.9169788 C158.724026,66.5044773 157.168626,66.241321 155.363432,65.9930991 L155.248032,65.9482956 C155.016708,65.8597185 154.651804,65.8313944 154.287521,65.8025554 C153.807838,65.7289128 153.077934,65.6717497 152.482424,65.5548485 C152.366403,65.51056 152.153977,65.3169263 152.020397,65.3771793 C151.88672,65.4369174 151.88672,65.4369174 151.771417,65.3926288 C151.407134,65.3637898 151.291113,65.3195012 151.059789,65.2309241 C149.886755,64.8910353 149.649267,64.1319502 150.620356,63.5021259 C151.859518,62.7528255 154.003642,62.46289 155.541482,62.8305879 C155.79118,62.8151384 155.79118,62.8151384 155.906483,62.859427 C156.137186,62.9485191 156.386884,62.9330696 156.502187,62.9773581 C156.964116,63.1545123 157.560538,63.2724434 158.021848,63.4501126 C158.386751,63.4784367 158.617357,63.5670138 158.848778,63.6561058 C160.368341,64.1283453 161.906279,64.4965582 163.577796,64.8045181 C164.19168,64.8173927 164.804846,64.8302673 165.321801,64.6948267 C165.321801,64.6948267 165.437821,64.7391153 165.571401,64.6788623 L166.761897,64.9136946 C173.33883,61.09149 182.589791,58.1844104 192.719108,56.6173168 C193.101668,56.5416143 193.350551,56.5256499 193.733208,56.4504623 L193.838382,55.8412373 C193.796807,55.8566868 193.754417,55.8716213 193.707854,55.8834659 L193.841531,55.8237279 L193.838382,55.8412373 C194.274519,55.6882873 194.531575,55.4004118 194.564456,55.209868 C194.70943,54.3745655 194.355726,53.5701619 194.002837,52.7662732 L193.710226,52.3192679 C193.515456,52.0216077 193.320686,51.7239474 193.241317,51.4710907 C193.125296,51.4268022 193.16185,51.2177191 193.16185,51.2177191 C193.16185,51.2177191 193.295429,51.157466 193.180224,51.1136925 C193.190803,50.3381279 194.563447,49.5280595 196.459406,49.2540885 C197.474126,49.086719 198.319431,49.1886857 199.012064,49.4549319 C199.589394,49.6768896 199.899564,50.0193534 199.960657,50.3767517 L199.942283,50.4807782 C199.924723,50.5853198 200.040026,50.6296084 200.021749,50.7341499 C199.967637,51.0477746 199.798123,51.3165958 199.743196,51.6297055 C199.725734,51.7347621 199.822662,51.8830772 199.670806,52.0478718 C199.410529,52.8388859 199.381575,53.718477 199.485679,54.5388451 C199.583325,54.6871602 199.681069,54.8359903 199.911772,54.9250824 C200.142378,55.0136595 200.392076,54.99821 200.507282,55.0419835 L200.622682,55.0867871 L200.781616,55.5935304 C209.27012,54.9554664 217.578008,55.362818 224.342827,56.8480293 C225.996068,57.2605307 227.534005,57.6287436 228.938266,58.0566946 L230.122499,57.6205039 L230.390474,57.5005129 C231.00364,57.5133874 231.519877,57.3779469 232.036735,57.2419913 C233.640179,56.52153 235.109132,55.8602917 236.348293,55.1109913 L236.481873,55.0507383 C236.749848,54.9307472 237.016387,54.8107561 237.168244,54.6459615 C237.587455,54.3616909 238.005851,54.0769052 238.541083,53.8369231 L239.209177,53.536688 C239.876553,53.2364528 240.775873,53.0242798 241.772317,52.9614518 C243.018458,52.8831744 244.112025,52.9696916 244.670981,53.2956759 C245.692681,53.7993293 245.280645,54.7556529 243.829154,55.3118347 L243.027383,55.6718079 C242.377663,55.8680164 241.843149,56.1079986 241.19343,56.3042071 C240.925455,56.4241982 240.543613,56.4999007 240.275638,56.6198918 L240.142058,56.6801448 C238.308008,57.312029 236.83824,57.9727524 235.367755,58.6334757 C235.082939,58.8580083 234.797405,59.0825409 234.876774,59.3353976 L235.010452,59.2756596 L234.057541,59.8004274 C238.817361,62.1863441 241.726386,65.3092016 242.125568,68.6931555 C241.980594,69.5284581 241.951738,70.4085642 241.806764,71.2438668 L243.398912,71.29897 L243.514215,71.3432585 C243.495938,71.4478001 243.726641,71.5368922 243.842662,71.5811807 C244.073986,71.6697578 244.438171,71.6980819 244.803172,71.7269209 C246.644203,71.7660597 248.75249,71.6852073 250.630075,71.5152629 C250.879675,71.4992984 251.243958,71.5281375 251.627236,71.452435 C252.258776,71.3612829 253.00624,71.3139045 253.753083,71.267041 C253.869103,71.3113296 254.118084,71.2958801 254.367781,71.2804306 L254.615849,71.2639511 C255.479528,71.2618912 256.324018,71.3633429 256.901348,71.5853006 C257.479395,71.8072583 257.771191,72.2537487 257.583401,72.6271114 C257.189544,73.4783785 255.355494,74.1102627 253.380166,74.131377 C253.246586,74.19163 253.361889,74.2359186 253.112909,74.2513681 C252.864026,74.2673326 252.748723,74.223044 252.499025,74.2384935 C251.769838,74.1813304 251.156575,74.1679408 250.427388,74.1107777 C250.062388,74.0819386 249.698104,74.0530996 249.333201,74.0247755 C247.37615,73.9413483 245.535119,73.9022095 243.426114,73.9830619 C242.928251,74.0144759 242.277716,74.2101694 241.876879,74.3904135 L241.743299,74.4506665 L240.248993,74.5449085 C238.756534,76.7562459 236.400494,78.9701582 233.335076,81.0228808 C230.152823,83.0307999 226.375061,84.9218179 222.038148,86.4858215 L222.694945,86.9611509 C222.410031,87.1851686 222.355918,87.4987933 222.568345,87.6924269 C223.438189,88.360875 224.557535,89.0128436 225.694016,89.5618156 L225.810036,89.6061041 C225.907063,89.7549343 226.137669,89.8435113 226.368992,89.9320884 C226.831737,90.1097576 227.293046,90.2874268 227.621396,90.524834 C227.852817,90.6139261 228.084141,90.7025032 227.949746,90.7622412 C227.816166,90.8224942 227.932187,90.8667828 228.04749,90.9110713 C228.820307,91.4306893 228.67543,92.2665068 227.320248,92.9715187 C225.905311,93.3186173 224.179583,93.3237671 223.139606,92.9246552 C222.908903,92.8355631 222.7936,92.7912746 222.695856,92.6424445 Z M275.432393,74.1380718 C276.993642,72.9551556 277.344683,71.6419487 276.680906,70.4955964 L260.95802,48.1906484 C260.56848,47.5953279 259.661985,47.135448 258.737931,46.7801097 C257.813975,46.4252864 256.773997,46.0261744 255.582784,45.7913422 L200.709581,41.0838817 C198.041522,40.8382347 195.033915,41.1312601 192.299631,41.9742874 L139.67593,58.4063681 C137.057667,59.293684 135.248253,60.4925647 134.533026,61.7774475 L124.032066,86.8179856 C123.814604,88.0709395 124.708987,89.305869 126.539439,90.1205723 L165.350955,105.032423 C167.16313,105.951668 170.196091,106.225639 173.470239,105.812622 L232.718369,99.5015044 C235.744971,99.1039374 238.478439,98.2603951 240.518557,97.1506065 L275.432393,74.1380718 Z M196.897684,80.8369204 L188.842447,88.2135383 C193.619414,88.377818 198.85133,88.0482288 203.790927,87.2731792 C206.184651,86.9672792 208.614308,86.4528111 211.06296,85.8338014 L201.782974,80.3744656 C201.436967,80.241085 200.956043,80.1684724 200.476457,80.0953448 C199.266869,79.9645391 197.736009,80.2678641 196.897684,80.8369204 Z M184.049151,78.9078453 L166.496564,82.0785962 C168.005645,83.3269152 170.01259,84.5438203 172.437833,85.4754247 C174.17054,86.1412979 176.055105,86.6423764 178.073346,87.0837169 C179.149159,87.2737457 179.975469,87.4802539 180.802497,87.6867621 L186.882406,80.3312585 C186.936519,80.0176338 186.973072,79.8085507 186.893703,79.555694 C186.620183,79.0046621 185.428252,78.7698298 184.049151,78.9078453 Z" id="Isometric-Kubernetes" fill="#FFBA5E"></path>
                </g>
            </g>
            <g id="Connection" transform="translate(0.000000, 43.000000)" fill-opacity="0.32">
                <polygon id="B" fill="url(#linearGradient-2)" points="146.3 219.074789 146.3 109.571026 199.5 129.480801 252.7 109.571026 252.7 219.074789 199.5 238.984564"></polygon>
                <polygon id="B" fill="url(#linearGradient-2)" points="146.3 109.571026 146.3 0.0672627537 199.5 19.9770378 252.7 0.0672627537 252.7 109.571026 199.5 129.480801"></polygon>
                <polygon id="B" fill="url(#linearGradient-2)" points="73.15 136.946966 73.15 27.4432035 126.35 47.3529786 179.55 27.4432035 179.55 136.946966 126.35 156.856742"></polygon>
                <polygon id="B" fill="url(#linearGradient-2)" points="219.45 136.879704 219.45 27.3759407 272.65 47.2857158 325.85 27.3759407 325.85 136.879704 272.65 156.789479"></polygon>
                <polygon id="B" fill="url(#linearGradient-3)" points="73.15 190.894123 73.15 82.195085 126.35 101.958547 179.55 82.195085 179.55 190.894123 126.35 210.657585"></polygon>
                <polygon id="B" fill="url(#linearGradient-2)" points="219.45 191.631585 219.45 82.1278222 272.65 102.037597 325.85 82.1278222 325.85 191.631585 272.65 211.54136"></polygon>
                <polygon id="B" fill="url(#linearGradient-2)" points="292.6 164.255644 292.6 54.7518815 345.8 74.6616566 399 54.7518815 399 163.263518 345.8 184.16542"></polygon>
                <polygon id="B" fill="url(#linearGradient-2)" points="0 164.255644 0 54.7518815 53.2 74.6616566 106.4 54.7518815 106.4 164.255644 53.2 184.16542"></polygon>
            </g>
            <g id="Cubes-Blue">
                <g id="cube" transform="translate(146.462705, 0.000000)">
                    <polygon id="fill" fill-opacity="0.92" fill="#0D0D28" points="0 19.8698565 53.0553675 0 106.110735 19.8698565 106.110735 43.0513557 53.0553675 62.9212121 0 43.0513557"></polygon>
                    <polyline id="Path" stroke="#005992" stroke-width="0.4" points="0 43.0513557 0 43.0513557 53.0553675 23.1814992 106.110735 43.0513557"></polyline>
                    <line x1="53.0553675" y1="0" x2="53.0553675" y2="23.1814992" id="Path-115" stroke="#005992" stroke-width="0.4"></line>
                    <polyline id="Path-54" stroke="#00ABE8" points="0 19.8698565 53.0553675 39.7397129 106.110735 19.8698565"></polyline>
                    <line x1="53.0553675" y1="62.9212121" x2="53.0553675" y2="39.7397129" id="Path-114" stroke="#00ABE8" fill="#02022B"></line>
                    <polygon id="border" stroke="#00ABE8" points="0 19.8698565 53.0553675 0 106.110735 19.8698565 106.110735 43.0513557 53.0553675 62.9212121 0 43.0513557"></polygon>
                </g>
                <g id="cube" transform="translate(73.231352, 27.715296)">
                    <polygon id="fill" fill-opacity="0.92" fill="#0D0D28" points="0 19.8698565 53.0553675 0 106.110735 19.8698565 106.110735 43.0513557 53.0553675 62.9212121 0 43.0513557"></polygon>
                    <polyline id="Path" stroke="#005992" stroke-width="0.4" points="0 43.0513557 0 43.0513557 53.0553675 23.1814992 106.110735 43.0513557"></polyline>
                    <line x1="53.0553675" y1="0" x2="53.0553675" y2="23.1814992" id="Path-115" stroke="#005992" stroke-width="0.4"></line>
                    <polyline id="Path-54" stroke="#00ABE8" points="0 19.8698565 53.0553675 39.7397129 106.110735 19.8698565"></polyline>
                    <line x1="53.0553675" y1="62.9212121" x2="53.0553675" y2="39.7397129" id="Path-114" stroke="#00ABE8" fill="#02022B"></line>
                    <polygon id="border" stroke="#00ABE8" points="0 19.8698565 53.0553675 0 106.110735 19.8698565 106.110735 43.0513557 53.0553675 62.9212121 0 43.0513557"></polygon>
                </g>
                <g id="cube" transform="translate(219.694057, 27.715296)">
                    <polygon id="fill" fill-opacity="0.92" fill="#0D0D28" points="0 19.8698565 53.0553675 0 106.110735 19.8698565 106.110735 43.0513557 53.0553675 62.9212121 0 43.0513557"></polygon>
                    <polyline id="Path" stroke="#005992" stroke-width="0.4" points="0 43.0513557 0 43.0513557 53.0553675 23.1814992 106.110735 43.0513557"></polyline>
                    <line x1="53.0553675" y1="0" x2="53.0553675" y2="23.1814992" id="Path-115" stroke="#005992" stroke-width="0.4"></line>
                    <polyline id="Path-54" stroke="#00ABE8" points="0 19.8698565 53.0553675 39.7397129 106.110735 19.8698565"></polyline>
                    <line x1="53.0553675" y1="62.9212121" x2="53.0553675" y2="39.7397129" id="Path-114" stroke="#00ABE8" fill="#02022B"></line>
                    <polygon id="border" stroke="#00ABE8" points="0 19.8698565 53.0553675 0 106.110735 19.8698565 106.110735 43.0513557 53.0553675 62.9212121 0 43.0513557"></polygon>
                </g>
                <g id="cube" transform="translate(146.462705, 54.681530)">
                    <polygon id="fill" fill-opacity="0.92" fill="#0D0D28" points="0 19.8698565 53.0553675 0 106.110735 19.8698565 106.110735 43.0513557 53.0553675 62.9212121 0 43.0513557"></polygon>
                    <polyline id="Path" stroke="#005992" stroke-width="0.4" points="0 43.0513557 0 43.0513557 53.0553675 23.1814992 106.110735 43.0513557"></polyline>
                    <line x1="53.0553675" y1="0" x2="53.0553675" y2="23.1814992" id="Path-115" stroke="#005992" stroke-width="0.4"></line>
                    <polyline id="Path-54" stroke="#00ABE8" points="0 19.8698565 53.0553675 39.7397129 106.110735 19.8698565"></polyline>
                    <line x1="53.0553675" y1="62.9212121" x2="53.0553675" y2="39.7397129" id="Path-114" stroke="#00ABE8" fill="#02022B"></line>
                    <polygon id="border" stroke="#00ABE8" points="0 19.8698565 53.0553675 0 106.110735 19.8698565 106.110735 43.0513557 53.0553675 62.9212121 0 43.0513557"></polygon>
                </g>
                <g id="cube" transform="translate(0.000000, 54.681530)">
                    <polygon id="fill" fill-opacity="0.92" fill="#0D0D28" points="0 19.8698565 53.0553675 0 106.110735 19.8698565 106.110735 43.0513557 53.0553675 62.9212121 0 43.0513557"></polygon>
                    <polyline id="Path" stroke="#005992" stroke-width="0.4" points="0 43.0513557 0 43.0513557 53.0553675 23.1814992 106.110735 43.0513557"></polyline>
                    <line x1="53.0553675" y1="0" x2="53.0553675" y2="23.1814992" id="Path-115" stroke="#005992" stroke-width="0.4"></line>
                    <polyline id="Path-54" stroke="#00ABE8" points="0 19.8698565 53.0553675 39.7397129 106.110735 19.8698565"></polyline>
                    <line x1="53.0553675" y1="62.9212121" x2="53.0553675" y2="39.7397129" id="Path-114" stroke="#00ABE8" fill="#02022B"></line>
                    <polygon id="border" stroke="#00ABE8" points="0 19.8698565 53.0553675 0 106.110735 19.8698565 106.110735 43.0513557 53.0553675 62.9212121 0 43.0513557"></polygon>
                </g>
                <g id="cube" transform="translate(292.925410, 54.681530)">
                    <polygon id="fill" fill-opacity="0.92" fill="#0D0D28" points="0 19.8698565 53.0553675 0 106.110735 19.8698565 106.110735 43.0513557 53.0553675 62.9212121 0 43.0513557"></polygon>
                    <polyline id="Path" stroke="#005992" stroke-width="0.4" points="0 43.0513557 0 43.0513557 53.0553675 23.1814992 106.110735 43.0513557"></polyline>
                    <line x1="53.0553675" y1="0" x2="53.0553675" y2="23.1814992" id="Path-115" stroke="#005992" stroke-width="0.4"></line>
                    <polyline id="Path-54" stroke="#00ABE8" points="0 19.8698565 53.0553675 39.7397129 106.110735 19.8698565"></polyline>
                    <line x1="53.0553675" y1="62.9212121" x2="53.0553675" y2="39.7397129" id="Path-114" stroke="#00ABE8" fill="#02022B"></line>
                    <polygon id="border" stroke="#00ABE8" points="0 19.8698565 53.0553675 0 106.110735 19.8698565 106.110735 43.0513557 53.0553675 62.9212121 0 43.0513557"></polygon>
                </g>
                <g id="cube" transform="translate(73.231352, 82.396825)">
                    <polygon id="fill" fill-opacity="0.92" fill="#0D0D28" points="0 19.8698565 53.0553675 0 106.110735 19.8698565 106.110735 43.0513557 53.0553675 62.9212121 0 43.0513557"></polygon>
                    <polyline id="Path" stroke="#005992" stroke-width="0.4" points="0 43.0513557 0 43.0513557 53.0553675 23.1814992 106.110735 43.0513557"></polyline>
                    <line x1="53.0553675" y1="0" x2="53.0553675" y2="23.1814992" id="Path-115" stroke="#005992" stroke-width="0.4"></line>
                    <polyline id="Path-54" stroke="#00ABE8" points="0 19.8698565 53.0553675 39.7397129 106.110735 19.8698565"></polyline>
                    <line x1="53.0553675" y1="62.9212121" x2="53.0553675" y2="39.7397129" id="Path-114" stroke="#00ABE8" fill="#02022B"></line>
                    <polygon id="border" stroke="#00ABE8" points="0 19.8698565 53.0553675 0 106.110735 19.8698565 106.110735 43.0513557 53.0553675 62.9212121 0 43.0513557"></polygon>
                </g>
                <g id="cube" transform="translate(219.694057, 82.396825)">
                    <polygon id="fill" fill-opacity="0.92" fill="#0D0D28" points="0 19.8698565 53.0553675 0 106.110735 19.8698565 106.110735 43.0513557 53.0553675 62.9212121 0 43.0513557"></polygon>
                    <polyline id="Path" stroke="#005992" stroke-width="0.4" points="0 43.0513557 0 43.0513557 53.0553675 23.1814992 106.110735 43.0513557"></polyline>
                    <line x1="53.0553675" y1="0" x2="53.0553675" y2="23.1814992" id="Path-115" stroke="#005992" stroke-width="0.4"></line>
                    <polyline id="Path-54" stroke="#00ABE8" points="0 19.8698565 53.0553675 39.7397129 106.110735 19.8698565"></polyline>
                    <line x1="53.0553675" y1="62.9212121" x2="53.0553675" y2="39.7397129" id="Path-114" stroke="#00ABE8" fill="#02022B"></line>
                    <polygon id="border" stroke="#00ABE8" points="0 19.8698565 53.0553675 0 106.110735 19.8698565 106.110735 43.0513557 53.0553675 62.9212121 0 43.0513557"></polygon>
                </g>
                <g id="cube" transform="translate(146.462705, 110.112121)">
                    <polygon id="fill" fill-opacity="0.883932474" fill="#0D0D28" points="0 19.8698565 53.0553675 0 106.110735 19.8698565 106.110735 43.0513557 53.0553675 62.9212121 0 43.0513557"></polygon>
                    <polyline id="Path" stroke="#005992" stroke-width="0.4" points="0 43.0513557 0 43.0513557 53.0553675 23.1814992 106.110735 43.0513557"></polyline>
                    <line x1="53.0553675" y1="0" x2="53.0553675" y2="23.1814992" id="Path-115" stroke="#005992" stroke-width="0.4"></line>
                    <polyline id="Path-54" stroke="#00ABE8" points="0 19.8698565 53.0553675 39.7397129 106.110735 19.8698565"></polyline>
                    <line x1="53.0553675" y1="62.9212121" x2="53.0553675" y2="39.7397129" id="Path-114" stroke="#00ABE8" fill="#02022B"></line>
                    <polygon id="border" stroke="#00ABE8" points="0 19.8698565 53.0553675 0 106.110735 19.8698565 106.110735 43.0513557 53.0553675 62.9212121 0 43.0513557"></polygon>
                </g>
            </g>
        </g>
    </g>
</svg>